#N canvas 786 380 450 300 12;
#X obj 103 10 notein;
#X floatatom 103 83 5 0 0 0 - - - 0;
#X obj 103 106 mtof;
#X obj 103 130 osc~;
#X obj 103 237 dac~;
#X floatatom 196 87 5 0 0 0 - - - 0;
#X obj 197 44 / 127;
#X obj 196 158 line~;
#X msg 196 110 \$1 1000;
#X obj 104 193 *~;
#X obj 306 103 noteout;
#X obj 306 23 loadbang;
#X msg 306 62 60 127 5;
#X connect 0 0 1 0;
#X connect 0 1 6 0;
#X connect 1 0 2 0;
#X connect 2 0 3 0;
#X connect 3 0 9 0;
#X connect 5 0 8 0;
#X connect 6 0 5 0;
#X connect 7 0 9 1;
#X connect 8 0 7 0;
#X connect 9 0 4 0;
#X connect 9 0 4 1;
#X connect 11 0 12 0;
#X connect 12 0 10 0;
