#N canvas 779 384 785 370 12;
#X obj 58 203 osc~;
#X obj 144 56 bng 19 250 50 0 empty empty empty 0 -10 0 12 #fcfcfc #000000 #000000;
#X obj 210 111 bng 19 250 50 0 empty empty empty 0 -10 0 12 #fcfcfc #000000 #000000;
#X obj 111 276 *~;
#X floatatom 210 230 5 0 0 0 - - - 0;
#X obj 101 324 dac~;
#X obj 210 199 line 0 3;
#X obj 264 18 bng 19 250 50 0 empty empty empty 0 -10 0 12 #fcfcfc #000000 #000000;
#X obj 18 70 loadbang;
#X msg 18 110 440;
#X floatatom 18 150 5 0 0 0 - - - 0;
#X floatatom 319 19 5 0 0 0 - - - 0;
#X msg 210 144 0 2000;
#X msg 129 110 0.1 1000;
#X obj 210 87 delay 3000;
#X obj 319 42 s freq;
#X obj 53 110 r freq;
#X obj 144 8 r bang;
#X obj 264 42 s bang;
#X obj 390 144 r list;
#X obj 496 137 s list;
#X listbox 496 109 20 0 0 0 - - - 0;
#X msg 496 76 list test 1 2 3;
#X obj 390 194 print pd received;
#X connect 0 0 3 0;
#X connect 1 0 13 0;
#X connect 1 0 14 0;
#X connect 2 0 12 0;
#X connect 3 0 5 0;
#X connect 3 0 5 1;
#X connect 4 0 3 1;
#X connect 6 0 4 0;
#X connect 7 0 18 0;
#X connect 8 0 9 0;
#X connect 9 0 10 0;
#X connect 10 0 0 0;
#X connect 11 0 15 0;
#X connect 12 0 6 0;
#X connect 13 0 6 0;
#X connect 14 0 2 0;
#X connect 16 0 10 0;
#X connect 17 0 1 0;
#X connect 19 0 23 0;
#X connect 21 0 20 0;
#X connect 22 0 21 0;
