#N canvas 792 466 450 300 12;
#X obj 200 39 loadbang;
#X obj 304 121 bng 19 250 50 0 empty empty empty 0 -10 0 12 #fcfcfc #000000 #000000;
#X obj 200 200 s godot;
#X msg 200 121 symbol test;
#X obj 304 86 metro 3000;
#X msg 139 120 13.37;
#X msg 11 94 list hello 3 2 1;
#X connect 0 0 5 0;
#X connect 0 0 3 0;
#X connect 0 0 6 0;
#X connect 0 0 4 0;
#X connect 1 0 2 0;
#X connect 3 0 2 0;
#X connect 4 0 1 0;
#X connect 5 0 2 0;
#X connect 6 0 2 0;
